<svg width="26" height="26" viewBox="0 0 26 26" fill="none" xmlns="http://www.w3.org/2000/svg">
<path d="M6.42191 15.4656L5.59916 18.537L2.59203 18.6006C1.69335 16.9338 1.18359 15.0266 1.18359 13C1.18359 11.0403 1.6602 9.1922 2.50501 7.56494H2.50566L5.18285 8.05576L6.35562 10.7169C6.11016 11.4325 5.97637 12.2007 5.97637 13C5.97647 13.8675 6.13361 14.6987 6.42191 15.4656Z" fill="#FBBB00"/>
<path d="M24.6136 10.7921C24.7493 11.507 24.8201 12.2453 24.8201 12.9999C24.8201 13.846 24.7311 14.6713 24.5617 15.4675C23.9864 18.1765 22.4831 20.5421 20.4006 22.2161L20.4 22.2155L17.0279 22.0434L16.5507 19.0642C17.9325 18.2538 19.0124 16.9856 19.5812 15.4675H13.2617V10.7921H19.6734H24.6136Z" fill="#518EF8"/>
<path d="M20.4015 22.2156L20.4022 22.2162C18.3769 23.8441 15.8041 24.8181 13.0035 24.8181C8.50284 24.8181 4.58987 22.3026 2.59375 18.6006L6.42362 15.4656C7.42166 18.1292 9.99115 20.0253 13.0035 20.0253C14.2983 20.0253 15.5113 19.6753 16.5522 19.0643L20.4015 22.2156Z" fill="#28B446"/>
<path d="M20.5442 3.90253L16.7156 7.03693C15.6383 6.36357 14.3649 5.97459 13.0007 5.97459C9.92014 5.97459 7.3026 7.95769 6.35456 10.7168L2.50455 7.56487H2.50391C4.4708 3.77267 8.43313 1.18176 13.0007 1.18176C15.8682 1.18176 18.4974 2.2032 20.5442 3.90253Z" fill="#F14336"/>
</svg>
