<svg width="22" height="26" viewBox="0 0 22 26" fill="none" xmlns="http://www.w3.org/2000/svg">
<path d="M5.66853 25.5133C5.15592 25.1722 4.7016 24.7508 4.32303 24.2653C3.90661 23.7641 3.52079 23.2383 3.16766 22.6906C2.33897 21.4766 1.6891 20.1498 1.23797 18.7508C0.696031 17.1258 0.433594 15.5683 0.433594 14.0448C0.433594 12.3435 0.801656 10.8582 1.52153 9.61021C2.05516 8.63475 2.83974 7.8196 3.79409 7.24908C4.71897 6.67462 5.78166 6.36025 6.87022 6.33908C7.25128 6.33908 7.66159 6.39433 8.09709 6.49996C8.40991 6.58852 8.79097 6.72827 9.25653 6.90215C9.84884 7.13046 10.1747 7.27021 10.2852 7.30433C10.6321 7.43108 10.9238 7.48633 11.1529 7.48633C11.3268 7.48633 11.5722 7.43108 11.8508 7.34658C12.0077 7.29133 12.3034 7.19383 12.7267 7.01265C13.146 6.8599 13.4758 6.72908 13.7383 6.63158C14.1405 6.51296 14.5297 6.40327 14.8766 6.34802C15.2879 6.28318 15.7053 6.266 16.1205 6.29683C16.8401 6.34386 17.5488 6.49635 18.2241 6.7494C19.3283 7.19383 20.2212 7.88771 20.8858 8.87408C20.6049 9.04722 20.3413 9.24693 20.0985 9.47046C19.5701 9.93893 19.12 10.4889 18.7652 11.0995C18.3015 11.934 18.0611 12.8741 18.0673 13.8287C18.0843 15.0011 18.385 16.0338 18.9773 16.9268C19.4127 17.5886 19.9787 18.1545 20.6405 18.59C20.9793 18.8183 21.271 18.9751 21.5505 19.0807C21.4197 19.487 21.2799 19.8802 21.115 20.2702C20.7409 21.1448 20.2875 21.9833 19.7605 22.7751C19.2909 23.4568 18.9228 23.9646 18.6433 24.3026C18.2078 24.8186 17.7886 25.2126 17.3653 25.4873C16.8997 25.796 16.3497 25.961 15.7907 25.961C15.4121 25.9755 15.0336 25.9297 14.6694 25.8253C14.3566 25.7196 14.047 25.6051 13.7423 25.4743C13.4256 25.3288 13.099 25.2058 12.7649 25.1062C11.9392 24.8941 11.0734 24.8927 10.247 25.1021C9.90815 25.1996 9.58234 25.3134 9.26059 25.4531C8.80803 25.6433 8.50741 25.7708 8.33353 25.8253C7.98659 25.9268 7.62666 25.9902 7.26266 26.0113C6.69959 26.0113 6.17472 25.8505 5.65472 25.5246L5.66853 25.5133ZM13.0948 5.51358C12.3587 5.88165 11.6558 6.03846 10.9579 5.98727C10.8482 5.28446 10.9579 4.5654 11.2496 3.77808C11.4979 3.11107 11.8648 2.49448 12.3327 1.95808C12.8267 1.39341 13.4261 0.930576 14.0974 0.59552C14.8124 0.227458 15.4941 0.0283955 16.1457 -0.000854492C16.2302 0.735271 16.1457 1.45921 15.8752 2.24165C15.6248 2.93331 15.2585 3.57734 14.7921 4.14615C14.316 4.71159 13.7318 5.17622 13.0737 5.51277L13.0948 5.51358Z" fill="black"/>
</svg>
