<svg width="15" height="23" viewBox="0 0 15 23" fill="none" xmlns="http://www.w3.org/2000/svg">
<path fill-rule="evenodd" clip-rule="evenodd" d="M1.59372 6.88044C1.0776 6.88044 0.659623 6.44974 0.739584 5.94089C1.23934 2.84965 3.59457 0.596191 7.6817 0.596191C11.7706 0.596191 14.5275 3.06773 14.5275 6.43884C14.5275 8.8813 13.319 10.5968 11.2745 11.8417C9.27548 13.0393 8.70484 13.8734 8.70484 15.4945V15.549C8.70484 15.79 8.60911 16.0211 8.43871 16.1915C8.2683 16.3619 8.03718 16.4577 7.79619 16.4577H6.39686C6.15744 16.4577 5.92769 16.3632 5.75754 16.1947C5.58739 16.0263 5.4906 15.7975 5.48821 15.5581L5.48276 15.1946C5.40461 12.9757 6.34961 11.5582 8.47223 10.2661C10.3441 9.11755 11.011 8.20344 11.011 6.58059C11.011 4.80144 9.63349 3.4948 7.51087 3.4948C5.67721 3.4948 4.40328 4.45615 3.98893 6.04266C3.86899 6.50426 3.48372 6.88044 3.00758 6.88044H1.59372ZM7.08381 22.4039C8.21417 22.4039 9.07376 21.5425 9.07376 20.423C9.07376 19.2999 8.21417 18.4385 7.08381 18.4385C5.98252 18.4385 5.10839 19.2999 5.10839 20.4212C5.10839 21.5425 5.98252 22.4039 7.08381 22.4039Z" fill="white"/>
</svg>
