<svg width="22" height="22" viewBox="0 0 22 22" fill="none" xmlns="http://www.w3.org/2000/svg">
<path d="M11.0003 0.333252C11.7364 0.333427 12.3331 0.930138 12.3333 1.66626V9.66626H20.3333C21.0697 9.66626 21.6663 10.2639 21.6663 11.0002C21.6661 11.7365 21.0696 12.3333 20.3333 12.3333H12.3333V20.3333C12.3333 21.0695 11.7365 21.6661 11.0003 21.6663C10.2639 21.6663 9.66632 21.0696 9.66632 20.3333V12.3333H1.66632C0.930199 12.3331 0.333488 11.7364 0.333313 11.0002C0.333313 10.264 0.930091 9.66644 1.66632 9.66626H9.66632V1.66626C9.6665 0.93003 10.264 0.333252 11.0003 0.333252Z" fill="#1937BA"/>
</svg>
