<svg width="50" height="50" viewBox="0 0 50 50" fill="none" xmlns="http://www.w3.org/2000/svg">
<rect width="50" height="50" rx="10" fill="#1937BA"/>
<path d="M15.8646 17.625H31.7125C33.1479 17.625 34.1844 18.9479 33.7906 20.2792L32.0677 26.1125C31.8021 27.0083 30.9542 27.625 29.9896 27.625H20.45C19.4844 27.625 18.6354 27.0073 18.3708 26.1125L15.8646 17.625ZM15.8646 17.625L15.125 15.125M29.1875 33.875C29.6019 33.875 29.9993 33.7104 30.2924 33.4174C30.5854 33.1243 30.75 32.7269 30.75 32.3125C30.75 31.8981 30.5854 31.5007 30.2924 31.2076C29.9993 30.9146 29.6019 30.75 29.1875 30.75C28.7731 30.75 28.3757 30.9146 28.0826 31.2076C27.7896 31.5007 27.625 31.8981 27.625 32.3125C27.625 32.7269 27.7896 33.1243 28.0826 33.4174C28.3757 33.7104 28.7731 33.875 29.1875 33.875ZM20.8542 33.875C21.2686 33.875 21.666 33.7104 21.959 33.4174C22.252 33.1243 22.4167 32.7269 22.4167 32.3125C22.4167 31.8981 22.252 31.5007 21.959 31.2076C21.666 30.9146 21.2686 30.75 20.8542 30.75C20.4398 30.75 20.0423 30.9146 19.7493 31.2076C19.4563 31.5007 19.2917 31.8981 19.2917 32.3125C19.2917 32.7269 19.4563 33.1243 19.7493 33.4174C20.0423 33.7104 20.4398 33.875 20.8542 33.875Z" stroke="white" stroke-width="1.5625" stroke-linecap="round" stroke-linejoin="round"/>
</svg>
