<svg width="50" height="50" viewBox="0 0 50 50" fill="none" xmlns="http://www.w3.org/2000/svg">
<rect x="1" y="1" width="48" height="48" rx="9" fill="white"/>
<rect x="1" y="1" width="48" height="48" rx="9" stroke="#1937BA" stroke-width="2"/>
<path d="M21.3748 28.8437L17.7602 25.2292C17.5655 25.0344 17.3013 24.925 17.0259 24.925C16.7504 24.925 16.4863 25.0344 16.2915 25.2292C16.0967 25.4239 15.9873 25.6881 15.9873 25.9635C15.9873 26.0999 16.0142 26.235 16.0664 26.361C16.1186 26.487 16.1951 26.6015 16.2915 26.6979L20.6457 31.0521C21.0519 31.4583 21.7082 31.4583 22.1144 31.0521L33.1352 20.0312C33.33 19.8365 33.4394 19.5723 33.4394 19.2969C33.4394 19.0214 33.33 18.7573 33.1352 18.5625C32.9405 18.3677 32.6763 18.2583 32.4009 18.2583C32.1254 18.2583 31.8613 18.3677 31.6665 18.5625L21.3748 28.8437Z" fill="#1937BA"/>
</svg>
