<svg width="24" height="24" viewBox="0 0 24 24" fill="none" xmlns="http://www.w3.org/2000/svg">
<path d="M2.22222 19.3332H21.7778C22.45 19.3332 23 18.7832 23 18.1109C23 17.4387 22.45 16.8887 21.7778 16.8887H2.22222C1.55 16.8887 1 17.4387 1 18.1109C1 18.7832 1.55 19.3332 2.22222 19.3332ZM2.22222 13.2221H21.7778C22.45 13.2221 23 12.6721 23 11.9998C23 11.3276 22.45 10.7776 21.7778 10.7776H2.22222C1.55 10.7776 1 11.3276 1 11.9998C1 12.6721 1.55 13.2221 2.22222 13.2221ZM1 5.88873C1 6.56095 1.55 7.11095 2.22222 7.11095H21.7778C22.45 7.11095 23 6.56095 23 5.88873C23 5.2165 22.45 4.6665 21.7778 4.6665H2.22222C1.55 4.6665 1 5.2165 1 5.88873Z" fill="black"/>
</svg>
