<svg width="25" height="25" viewBox="0 0 25 25" fill="none" xmlns="http://www.w3.org/2000/svg">
<path d="M12.5 7.97999C13.25 5.01936 16.0827 3.50764 22.25 3.47999C22.3486 3.47961 22.4463 3.49876 22.5375 3.53632C22.6286 3.57388 22.7114 3.62911 22.7812 3.69883C22.8509 3.76854 22.9061 3.85137 22.9437 3.94253C22.9812 4.0337 23.0004 4.13139 23 4.22999V17.73C23 17.9289 22.921 18.1197 22.7803 18.2603C22.6397 18.401 22.4489 18.48 22.25 18.48C16.25 18.48 13.932 19.6898 12.5 21.48M12.5 7.97999C11.75 5.01936 8.91735 3.50764 2.75001 3.47999C2.65141 3.47961 2.55372 3.49876 2.46255 3.53632C2.37139 3.57388 2.28856 3.62911 2.21885 3.69883C2.14913 3.76854 2.0939 3.85137 2.05634 3.94253C2.01878 4.0337 1.99963 4.13139 2.00001 4.22999V17.6395C2.00001 18.1026 2.28688 18.48 2.75001 18.48C8.75001 18.48 11.0764 19.6987 12.5 21.48M12.5 7.97999V21.48" stroke="#1937BA" stroke-width="1.5" stroke-linecap="round" stroke-linejoin="round"/>
</svg>
