<svg width="25" height="25" viewBox="0 0 25 25" fill="none" xmlns="http://www.w3.org/2000/svg">
<path fill-rule="evenodd" clip-rule="evenodd" d="M13.5 13.48V20.48C13.5 20.7452 13.3946 20.9996 13.2071 21.1871C13.0196 21.3746 12.7652 21.48 12.5 21.48C12.2348 21.48 11.9804 21.3746 11.7929 21.1871C11.6054 20.9996 11.5 20.7452 11.5 20.48V13.48H4.5C4.23478 13.48 3.98043 13.3746 3.79289 13.1871C3.60536 12.9996 3.5 12.7452 3.5 12.48C3.5 12.2148 3.60536 11.9604 3.79289 11.7729C3.98043 11.5853 4.23478 11.48 4.5 11.48H11.5V4.47998C11.5 4.21476 11.6054 3.96041 11.7929 3.77287C11.9804 3.58534 12.2348 3.47998 12.5 3.47998C12.7652 3.47998 13.0196 3.58534 13.2071 3.77287C13.3946 3.96041 13.5 4.21476 13.5 4.47998V11.48H20.5C20.7652 11.48 21.0196 11.5853 21.2071 11.7729C21.3946 11.9604 21.5 12.2148 21.5 12.48C21.5 12.7452 21.3946 12.9996 21.2071 13.1871C21.0196 13.3746 20.7652 13.48 20.5 13.48H13.5Z" fill="#1937BA"/>
</svg>
