<svg width="25" height="25" viewBox="0 0 25 25" fill="none" xmlns="http://www.w3.org/2000/svg">
<path d="M4.595 20.535L7.643 19.518L8.192 19.785C9.4625 20.4015 10.9145 20.73 12.5 20.73C17.744 20.73 21.5 16.983 21.5 12.48C21.5 7.96048 17.771 4.22998 12.5 4.22998C7.229 4.22998 3.5 7.96048 3.5 12.48C3.50886 14.2095 4.07835 15.8895 5.123 17.268L5.63 17.943L4.595 20.5335V20.535ZM3.5345 22.47C3.39876 22.5155 3.25284 22.5211 3.11397 22.4864C2.97511 22.4516 2.8491 22.3778 2.75084 22.2737C2.65257 22.1696 2.58615 22.0395 2.55942 21.8989C2.53269 21.7582 2.54677 21.6129 2.6 21.48L3.9245 18.1695C2.68427 16.5312 2.00897 14.5348 2 12.48C2 7.50898 6.023 2.72998 12.5 2.72998C18.977 2.72998 23 7.50898 23 12.48C23 17.451 18.935 22.23 12.5 22.23C10.6325 22.23 8.9645 21.828 7.538 21.135L3.533 22.47H3.5345Z" fill="#1937BA"/>
</svg>
