<svg width="24" height="24" viewBox="0 0 24 24" fill="none" xmlns="http://www.w3.org/2000/svg">
<path d="M12.0199 7.32568C11.4061 7.32568 10.7983 7.44659 10.2312 7.68149C9.66408 7.91639 9.1488 8.26069 8.71476 8.69474C8.28071 9.12878 7.93641 9.64406 7.70151 10.2112C7.46661 10.7783 7.3457 11.3861 7.3457 11.9999C7.3457 12.6138 7.46661 13.2216 7.70151 13.7887C7.93641 14.3558 8.28071 14.8711 8.71476 15.3051C9.1488 15.7392 9.66408 16.0835 10.2312 16.3184C10.7983 16.5533 11.4061 16.6742 12.0199 16.6742C13.2596 16.6742 14.4485 16.1817 15.3251 15.3051C16.2017 14.4285 16.6942 13.2396 16.6942 11.9999C16.6942 10.7602 16.2017 9.57133 15.3251 8.69474C14.4485 7.81815 13.2596 7.32568 12.0199 7.32568ZM8.7857 11.9999C8.7857 11.1421 9.12645 10.3195 9.73299 9.71297C10.3395 9.10643 11.1622 8.76568 12.0199 8.76568C12.8777 8.76568 13.7004 9.10643 14.3069 9.71297C14.9134 10.3195 15.2542 11.1421 15.2542 11.9999C15.2542 12.8577 14.9134 13.6803 14.3069 14.2869C13.7004 14.8934 12.8777 15.2342 12.0199 15.2342C11.1622 15.2342 10.3395 14.8934 9.73299 14.2869C9.12645 13.6803 8.7857 12.8577 8.7857 11.9999Z" fill="#1937BA"/>
<path d="M14.606 2.41367C13.8471 -0.163931 10.1924 -0.163931 9.43353 2.41367L9.29817 2.87303C9.24517 3.05296 9.15258 3.21875 9.02718 3.35825C8.90179 3.49775 8.74676 3.60742 8.57348 3.67922C8.40019 3.75102 8.21303 3.78313 8.02572 3.7732C7.83841 3.76327 7.65569 3.71155 7.49097 3.62183L7.07049 3.39143C4.70889 2.10695 2.12697 4.69031 3.41289 7.05047L3.64185 7.47095C3.73157 7.63567 3.78329 7.81839 3.79322 8.0057C3.80315 8.19301 3.77104 8.38017 3.69924 8.55346C3.62743 8.72674 3.51777 8.88177 3.37827 9.00716C3.23877 9.13256 3.07298 9.22515 2.89305 9.27815L2.43369 9.41351C-0.143912 10.1724 -0.143912 13.8271 2.43369 14.586L2.89305 14.7214C3.07298 14.7743 3.23877 14.8669 3.37827 14.9923C3.51777 15.1177 3.62743 15.2728 3.69924 15.446C3.77104 15.6193 3.80315 15.8065 3.79322 15.9938C3.78329 16.1811 3.73157 16.3638 3.64185 16.5286L3.41145 16.949C2.12697 19.3106 4.70889 21.894 7.07049 20.6066L7.49097 20.3777C7.65569 20.288 7.83841 20.2362 8.02572 20.2263C8.21303 20.2164 8.40019 20.2485 8.57348 20.3203C8.74676 20.3921 8.90179 20.5018 9.02718 20.6412C9.15258 20.7807 9.24517 20.9465 9.29817 21.1265L9.43353 21.5858C10.1924 24.1634 13.8471 24.1634 14.606 21.5858L14.7414 21.1265C14.7944 20.9465 14.887 20.7807 15.0124 20.6412C15.1377 20.5018 15.2928 20.3921 15.4661 20.3203C15.6393 20.2485 15.8265 20.2164 16.0138 20.2263C16.2011 20.2362 16.3838 20.288 16.5486 20.3777L16.969 20.6081C19.3307 21.894 21.914 19.3092 20.6266 16.949L20.3977 16.5286C20.308 16.3638 20.2563 16.1811 20.2463 15.9938C20.2364 15.8065 20.2685 15.6193 20.3403 15.446C20.4121 15.2728 20.5218 15.1177 20.6613 14.9923C20.8008 14.8669 20.9666 14.7743 21.1465 14.7214L21.6058 14.586C24.1834 13.8271 24.1834 10.1724 21.6058 9.41351L21.1465 9.27815C20.9666 9.22515 20.8008 9.13256 20.6613 9.00716C20.5218 8.88177 20.4121 8.72674 20.3403 8.55346C20.2685 8.38017 20.2364 8.19301 20.2463 8.0057C20.2563 7.81839 20.308 7.63567 20.3977 7.47095L20.6281 7.05047C21.914 4.68887 19.3292 2.10695 16.969 3.39287L16.5486 3.62183C16.3838 3.71155 16.2011 3.76327 16.0138 3.7732C15.8265 3.78313 15.6393 3.75102 15.4661 3.67922C15.2928 3.60742 15.1377 3.49775 15.0124 3.35825C14.887 3.21875 14.7944 3.05296 14.7414 2.87303L14.606 2.41367ZM10.8145 2.82119C11.1687 1.61879 12.8708 1.61879 13.225 2.82119L13.3604 3.28055C13.4742 3.66659 13.6729 4.02228 13.9421 4.32152C14.2112 4.62077 14.5439 4.856 14.9157 5.00996C15.2876 5.16392 15.6892 5.23271 16.0911 5.21129C16.4929 5.18986 16.885 5.07877 17.2383 4.88615L17.6574 4.65575C18.7575 4.05815 19.9614 5.26055 19.3623 6.36215L19.1334 6.78263C18.941 7.13604 18.8302 7.52801 18.809 7.92981C18.7878 8.33161 18.8568 8.73306 19.0109 9.10475C19.165 9.47644 19.4003 9.80894 19.6995 10.0779C19.9988 10.3468 20.3544 10.5454 20.7404 10.6591L21.1983 10.7945C22.4007 11.1487 22.4007 12.8508 21.1983 13.205L20.739 13.3404C20.3529 13.4542 19.9972 13.6529 19.698 13.922C19.3987 14.1912 19.1635 14.5238 19.0096 14.8957C18.8556 15.2676 18.7868 15.6691 18.8082 16.071C18.8297 16.4729 18.9408 16.8649 19.1334 17.2183L19.3638 17.6374C19.9614 18.7375 18.759 19.9413 17.6574 19.3423L17.2383 19.1133C16.8849 18.9207 16.4928 18.8097 16.0908 18.7884C15.6888 18.767 15.2872 18.836 14.9153 18.9901C14.5434 19.1442 14.2108 19.3796 13.9417 19.679C13.6727 19.9784 13.474 20.3342 13.3604 20.7204L13.225 21.1783C12.8708 22.3807 11.1687 22.3807 10.8145 21.1783L10.6791 20.719C10.5653 20.3331 10.3666 19.9776 10.0976 19.6785C9.82853 19.3794 9.49601 19.1443 9.12435 18.9904C8.75268 18.8364 8.35128 18.7676 7.94956 18.7888C7.54784 18.8101 7.15597 18.921 6.80265 19.1133L6.38217 19.3438C5.28201 19.9414 4.07817 18.739 4.67721 17.6374L4.90617 17.2183C5.09906 16.8649 5.21037 16.4727 5.23193 16.0707C5.2535 15.6686 5.18477 15.2668 5.03079 14.8948C4.87681 14.5227 4.64149 14.1899 4.34209 13.9207C4.04269 13.6515 3.68681 13.4527 3.30057 13.339L2.84121 13.2036C1.63881 12.8493 1.63881 11.1473 2.84121 10.793L3.30057 10.6577C3.68621 10.5438 4.0415 10.3451 4.34045 10.0762C4.6394 9.80726 4.87444 9.47489 5.02836 9.10341C5.18228 8.73193 5.25119 8.33074 5.23005 7.92918C5.20891 7.52763 5.09825 7.13589 4.90617 6.78263L4.67577 6.36215C4.07817 5.26199 5.28057 4.05815 6.38217 4.65719L6.80265 4.88615C7.15597 5.0785 7.54784 5.18937 7.94956 5.21066C8.35128 5.23194 8.75268 5.16309 9.12435 5.00915C9.49601 4.85521 9.82853 4.62008 10.0976 4.32098C10.3666 4.02188 10.5653 3.66639 10.6791 3.28055L10.8145 2.82119Z" fill="#1937BA"/>
</svg>
