<svg width="48" height="48" viewBox="0 0 48 48" fill="none" xmlns="http://www.w3.org/2000/svg">
<rect x="0.5" y="0.5" width="47" height="47" rx="23.5" stroke="#212121" stroke-opacity="0.1"/>
<path fill-rule="evenodd" clip-rule="evenodd" d="M25.6667 19.4998C24.5261 19.4998 23.6667 20.3593 23.6667 21.4998V24.7498H22V25.8332H23.6667V31.8332H25.1667V25.7498H27.3092L27.5373 24.6665H25.1667V21.7498C25.1667 21.5894 25.2071 21.3773 25.3756 21.2088C25.5441 21.0403 25.7563 20.9998 25.9167 20.9998H27.6667V19.4998H25.6667ZM22.6667 21.4998C22.6667 19.807 23.9738 18.4998 25.6667 18.4998H27.9167C28.0771 18.4998 28.2892 18.5403 28.4577 18.7088C28.6262 18.8773 28.6667 19.0894 28.6667 19.2498V21.2498C28.6667 21.4102 28.6262 21.6224 28.4577 21.7909C28.2892 21.9594 28.0771 21.9998 27.9167 21.9998H26.1667V23.6665H27.8333C28.1106 23.6665 28.3184 23.8156 28.4368 23.9933C28.5455 24.1562 28.5833 24.3423 28.5833 24.4998V24.5519L28.2449 26.1594C28.2249 26.3081 28.15 26.4147 28.1005 26.4718C28.0386 26.5433 27.9688 26.5933 27.9135 26.6265C27.8171 26.6843 27.6646 26.7498 27.5 26.7498H26.1667V32.8332H22.6667V26.8332H21.75C21.5896 26.8332 21.3774 26.7927 21.2089 26.6242C21.0404 26.4557 21 26.2436 21 26.0832V24.4998C21 24.3394 21.0404 24.1273 21.2089 23.9588C21.3774 23.7903 21.5896 23.7498 21.75 23.7498H22.6667V21.4998Z" fill="#212121" fill-opacity="0.6"/>
<path fill-rule="evenodd" clip-rule="evenodd" d="M17.3744 17.3742C16.5765 18.1721 16.1667 19.4658 16.1667 21.4998V26.4998C16.1667 28.5339 16.5765 29.8276 17.3744 30.6255C18.1722 31.4233 19.466 31.8332 21.5 31.8332H26.5C28.534 31.8332 29.8277 31.4233 30.6256 30.6255C31.4235 29.8276 31.8333 28.5339 31.8333 26.4998V21.4998C31.8333 19.4658 31.4235 18.1721 30.6256 17.3742C29.8277 16.5764 28.534 16.1665 26.5 16.1665H21.5C19.466 16.1665 18.1722 16.5764 17.3744 17.3742ZM16.6673 16.6671C17.7444 15.59 19.3673 15.1665 21.5 15.1665H26.5C28.6326 15.1665 30.2556 15.59 31.3327 16.6671C32.4099 17.7443 32.8333 19.3672 32.8333 21.4998V26.4998C32.8333 28.6325 32.4099 30.2554 31.3327 31.3326C30.2556 32.4097 28.6326 32.8332 26.5 32.8332H21.5C19.3673 32.8332 17.7444 32.4097 16.6673 31.3326C15.5901 30.2554 15.1667 28.6325 15.1667 26.4998V21.4998C15.1667 19.3672 15.5901 17.7443 16.6673 16.6671Z" fill="#212121" fill-opacity="0.6"/>
</svg>
