<svg width="203" height="46" viewBox="0 0 203 46" fill="none" xmlns="http://www.w3.org/2000/svg">
<g clip-path="url(#clip0_13_43)">
<path d="M48.8574 17.5611C48.8574 27.809 41.4967 34.4509 30.0902 34.4509H15.4639V0.71875H30.5239C41.6393 0.71875 48.8574 7.31309 48.8574 17.5611ZM37.451 17.6561C37.451 12.6539 34.6112 9.38051 30.2803 9.38051H26.6208V25.7891H30.8091C34.8489 25.7891 37.451 22.6108 37.451 17.6561Z" fill="#1937BA"/>
<path d="M87.3543 17.5136C87.3543 27.7141 79.5599 35.2233 68.8307 35.2233C58.1015 35.2233 50.3071 27.7675 50.3071 17.5136C50.3071 7.25972 58.0956 0 68.8248 0C79.5539 0 87.3483 7.36071 87.3483 17.5136H87.3543ZM61.7551 17.5611C61.7551 22.3732 65.1236 25.9318 68.9733 25.9318C72.8229 25.9318 75.9003 22.3732 75.9003 17.5611C75.9003 12.7491 72.8229 9.28555 68.9733 9.28555C65.1236 9.28555 61.7551 12.7491 61.7551 17.5611Z" fill="#1937BA"/>
<path d="M117.237 0.71875V9.52309H107.613V34.445H96.4497V9.52903H86.873V0.71875H117.237Z" fill="#1937BA"/>
<path d="M154.926 16.6581H164.259V30.4053C160.599 32.8945 154.545 34.7243 149.858 34.7243C139.539 34.7243 132.03 27.4527 132.03 17.5077C132.03 7.5627 139.818 0.374268 150.559 0.374268C155.674 0.374268 161.253 2.39416 164.775 5.53687L158.633 12.9986C156.429 10.842 153.238 9.43406 150.517 9.43406C146.294 9.43406 143.198 12.856 143.198 17.5017C143.198 22.1475 146.341 25.6645 150.613 25.6645C151.741 25.6645 153.333 25.2427 154.926 24.5357V16.6522V16.6581Z" fill="#1937BA"/>
<path d="M202.773 17.4542C202.773 27.3992 195.175 34.7183 184.713 34.7183C174.251 34.7183 166.653 27.4467 166.653 17.4542C166.653 7.4617 174.251 0.374268 184.713 0.374268C195.175 0.374268 202.773 7.55082 202.773 17.4483V17.4542ZM177.816 17.5017C177.816 22.195 181.101 25.6645 184.85 25.6645C188.598 25.6645 191.604 22.195 191.604 17.5017C191.604 12.8085 188.604 9.43406 184.85 9.43406C181.095 9.43406 177.816 12.8144 177.816 17.5017Z" fill="#1937BA"/>
<path d="M5.12101 34.5638C7.94927 34.5638 10.242 32.271 10.242 29.4428C10.242 26.6145 7.94927 24.3218 5.12101 24.3218C2.29276 24.3218 0 26.6145 0 29.4428C0 32.271 2.29276 34.5638 5.12101 34.5638Z" fill="#1A1A1A"/>
<path d="M125.845 0.463379V34.4569H123.504V0.463379H125.845Z" fill="#1A1A1A"/>
<path d="M6.42799 38.574L3.84372 43.1841V45.8872H2.92883V43.2078L0.409912 38.5799H1.4555L3.20805 41.883C3.20805 41.883 3.2437 41.9484 3.2734 42.0256C3.30905 42.1028 3.35063 42.2038 3.39816 42.3345H3.41598C3.4338 42.2751 3.46351 42.2098 3.49321 42.1385C3.52886 42.0613 3.57044 41.9781 3.62391 41.889L5.45963 38.5859H6.43393L6.42799 38.574Z" fill="#1A1A1A"/>
<path d="M10.8123 45.9999C9.70138 45.9999 8.81619 45.6553 8.14487 44.9781C7.4795 44.2949 7.14087 43.4037 7.14087 42.3106C7.14087 41.1343 7.4795 40.1957 8.16269 39.4946C8.84589 38.7936 9.77267 38.4431 10.943 38.4431C12.0242 38.4431 12.8976 38.7817 13.557 39.4649C14.2164 40.1422 14.5491 41.0333 14.5491 42.1324C14.5491 43.3265 14.2105 44.2651 13.5332 44.9602C12.856 45.6553 11.947 45.9999 10.8123 45.9999ZM10.8123 45.2335C11.6737 45.2335 12.351 44.9721 12.8441 44.4493C13.3372 43.9265 13.5867 43.1958 13.5867 42.2512C13.5867 41.3066 13.3491 40.5402 12.8678 40.0115C12.3866 39.4828 11.7272 39.2214 10.8777 39.2214C10.0281 39.2214 9.38651 39.5006 8.8756 40.0531C8.36468 40.6056 8.10329 41.3363 8.10329 42.2334C8.10329 43.1304 8.3528 43.8612 8.85183 44.4077C9.35086 44.9543 10.0044 45.2335 10.8064 45.2335H10.8123Z" fill="#1A1A1A"/>
<path d="M22.3731 42.9167C22.3731 43.9444 22.1236 44.7167 21.6305 45.2336C21.1374 45.7445 20.3889 46.0059 19.3968 46.0059C18.4047 46.0059 17.7333 45.7623 17.2581 45.2692C16.7828 44.7761 16.5452 44.0335 16.5452 43.0474V38.5798H17.4601V42.9939C17.4601 43.7424 17.6323 44.3009 17.965 44.6811C18.3037 45.0554 18.8086 45.2455 19.4859 45.2455C20.1631 45.2455 20.6325 45.0672 20.9592 44.7048C21.286 44.3425 21.4464 43.8018 21.4464 43.0771V38.5858H22.3613V42.9345L22.3731 42.9167Z" fill="#1A1A1A"/>
<path d="M30.4349 45.8812H29.3418L27.9992 43.8079C27.7496 43.4217 27.5358 43.1722 27.3575 43.0593C27.1793 42.9464 26.9595 42.893 26.71 42.893H25.807V45.8812H24.8921V38.574H27.2268C27.91 38.574 28.4744 38.7403 28.9259 39.0789C29.3774 39.4176 29.6032 39.9107 29.6032 40.5701C29.6032 41.087 29.4606 41.5206 29.1695 41.8711C28.8843 42.2217 28.4863 42.4771 27.9873 42.6316V42.6494C28.1536 42.7385 28.2962 42.8395 28.421 42.9524C28.5457 43.0593 28.6764 43.2197 28.813 43.4336L30.4349 45.8931V45.8812ZM25.807 39.3463V42.1207H27.0546C27.512 42.1207 27.8863 41.984 28.1952 41.7107C28.4982 41.4375 28.6526 41.081 28.6526 40.6414C28.6526 40.2493 28.516 39.9404 28.2427 39.7027C27.9694 39.471 27.5774 39.3522 27.0664 39.3522H25.8129L25.807 39.3463Z" fill="#1A1A1A"/>
<path d="M34.849 45.8812L37.8491 38.574H38.7996L41.8116 45.8812H40.7957L40.0056 43.9267H36.6134L35.8648 45.8812H34.843H34.849ZM36.9223 43.1544H39.7086L38.4432 39.9463C38.4194 39.8928 38.4016 39.8275 38.3838 39.7503C38.3659 39.6671 38.3481 39.572 38.3244 39.4592H38.3006C38.2828 39.5602 38.2649 39.6552 38.2412 39.7324C38.2174 39.8097 38.1996 39.8869 38.1758 39.9463L36.9283 43.1544H36.9223Z" fill="#1A1A1A"/>
<path d="M47.5862 45.8812H43.5227V38.574H44.4376V45.1089H47.5803V45.8812H47.5862Z" fill="#1A1A1A"/>
<path d="M53.4083 45.8812H49.3447V38.574H50.2596V45.1089H53.4023V45.8812H53.4083Z" fill="#1A1A1A"/>
<path d="M54.9292 43.3027V42.6433H57.9115V43.3027H54.9292Z" fill="#1A1A1A"/>
<path d="M61.1195 45.8812H60.2046V38.574H61.1195V45.8812Z" fill="#1A1A1A"/>
<path d="M70.0486 45.8812H68.9258L64.8979 40.0532C64.8444 39.976 64.8028 39.9047 64.7612 39.8275C64.7197 39.7503 64.684 39.673 64.6484 39.5958H64.6127C64.6246 39.673 64.6365 39.7978 64.6484 39.9641C64.6603 40.1305 64.6602 40.3443 64.6602 40.5998V45.8812H63.7454V38.574H64.9335L68.8545 44.3069C68.9377 44.4257 69.009 44.5267 69.0565 44.6099C69.1099 44.693 69.1456 44.7525 69.1694 44.8H69.1931C69.1753 44.6931 69.1634 44.5505 69.1515 44.3722C69.1397 44.194 69.1396 43.9742 69.1396 43.7247V38.574H70.0545V45.8812H70.0486Z" fill="#1A1A1A"/>
<path d="M72.4189 43.3027V42.6433H75.4012V43.3027H72.4189Z" fill="#1A1A1A"/>
<path d="M80.8431 45.9999C79.7321 45.9999 78.847 45.6553 78.1756 44.9781C77.5103 44.2949 77.1716 43.4037 77.1716 42.3106C77.1716 41.1343 77.5103 40.1957 78.1935 39.4946C78.8767 38.7936 79.8034 38.4431 80.9738 38.4431C82.055 38.4431 82.9283 38.7817 83.5878 39.4649C84.2472 40.1422 84.5799 41.0333 84.5799 42.1324C84.5799 43.3265 84.2412 44.2651 83.564 44.9602C82.8867 45.6553 81.9778 45.9999 80.8431 45.9999ZM80.8431 45.2335C81.7045 45.2335 82.3818 44.9721 82.8749 44.4493C83.3679 43.9265 83.6175 43.1958 83.6175 42.2512C83.6175 41.3066 83.3798 40.5402 82.8986 40.0115C82.4174 39.4828 81.758 39.2214 80.9084 39.2214C80.0589 39.2214 79.4173 39.5006 78.9064 40.0531C78.3955 40.6056 78.1341 41.3363 78.1341 42.2334C78.1341 43.1304 78.3836 43.8612 78.8826 44.4077C79.3816 44.9543 80.0351 45.2335 80.8371 45.2335H80.8431Z" fill="#1A1A1A"/>
<path d="M92.9861 45.8812H91.8633L87.8354 40.0532C87.7819 39.976 87.7403 39.9047 87.6987 39.8275C87.6572 39.7503 87.6215 39.673 87.5859 39.5958H87.5502C87.5621 39.673 87.574 39.7978 87.5859 39.9641C87.5977 40.1305 87.5977 40.3443 87.5977 40.5998V45.8812H86.6829V38.574H87.871L91.792 44.3069C91.8752 44.4257 91.9465 44.5267 91.994 44.6099C92.0475 44.693 92.0831 44.7525 92.1069 44.8H92.1306C92.1128 44.6931 92.1009 44.5505 92.089 44.3722C92.0771 44.194 92.0772 43.9742 92.0772 43.7247V38.574H92.992V45.8812H92.9861Z" fill="#1A1A1A"/>
<path d="M99.7468 45.8812H95.6001V38.574H99.5745V39.3463H96.515V41.7761H99.3428V42.5484H96.515V45.1089H99.7468V45.8812Z" fill="#1A1A1A"/>
<path d="M105.438 45.8812V38.574H107.601C108.979 38.574 110.013 38.871 110.702 39.4651C111.391 40.0592 111.736 40.9503 111.736 42.1385C111.736 43.2672 111.349 44.1703 110.589 44.8594C109.823 45.5426 108.795 45.8872 107.512 45.8872H105.438V45.8812ZM106.353 39.3463V45.1089H107.523C108.551 45.1089 109.347 44.8535 109.918 44.3366C110.488 43.8257 110.773 43.095 110.773 42.1563C110.773 41.2177 110.506 40.5166 109.971 40.0473C109.436 39.578 108.64 39.3463 107.571 39.3463H106.347H106.353Z" fill="#1A1A1A"/>
<path d="M114.754 45.8812H113.839V38.574H114.754V45.8812Z" fill="#1A1A1A"/>
<path d="M123.219 45.3821C122.827 45.59 122.411 45.7445 121.972 45.8514C121.538 45.9524 121.075 46.0059 120.593 46.0059C119.447 46.0059 118.538 45.6851 117.861 45.0375C117.183 44.39 116.851 43.487 116.851 42.3285C116.851 41.17 117.231 40.2017 117.985 39.5007C118.74 38.7996 119.708 38.4551 120.89 38.4551C121.324 38.4551 121.728 38.4967 122.096 38.5798C122.465 38.663 122.845 38.7937 123.231 38.9779L122.857 39.6729C122.53 39.5185 122.215 39.4056 121.9 39.3343C121.585 39.263 121.247 39.2274 120.884 39.2274C119.987 39.2274 119.251 39.4947 118.674 40.0235C118.098 40.5522 117.807 41.3007 117.807 42.2691C117.807 43.2375 118.063 43.986 118.567 44.491C119.072 44.996 119.785 45.2455 120.706 45.2455C121.009 45.2455 121.3 45.2158 121.562 45.1623C121.829 45.1088 122.073 45.0197 122.292 44.9068V42.8572H120.576V42.0849H123.207V45.3999L123.219 45.3821Z" fill="#1A1A1A"/>
<path d="M126.516 45.8812H125.601V38.574H126.516V45.8812Z" fill="#1A1A1A"/>
<path d="M133.752 39.3463H131.495V45.8812H130.58V39.3463H128.323V38.574H133.752V39.3463Z" fill="#1A1A1A"/>
<path d="M133.877 45.8812L136.877 38.574H137.828L140.84 45.8812H139.824L139.034 43.9267H135.641L134.893 45.8812H133.871H133.877ZM135.956 43.1544H138.743L137.477 39.9463C137.453 39.8928 137.436 39.8275 137.418 39.7503C137.4 39.6671 137.382 39.572 137.358 39.4592H137.335C137.317 39.5602 137.299 39.6552 137.275 39.7324C137.251 39.8097 137.234 39.8869 137.21 39.9463L135.962 43.1544H135.956Z" fill="#1A1A1A"/>
<path d="M146.62 45.8812H142.557V38.574H143.472V45.1089H146.614V45.8812H146.62Z" fill="#1A1A1A"/>
<path d="M152.918 43.2019V45.8812H152.003V38.574H154.153C154.991 38.574 155.638 38.77 156.102 39.1562C156.559 39.5423 156.791 40.0889 156.791 40.7959C156.791 41.5028 156.536 42.0791 156.025 42.5246C155.514 42.9702 154.825 43.2019 153.951 43.2019H152.918ZM152.918 39.3463V42.4236H153.88C154.516 42.4236 154.997 42.287 155.33 42.0078C155.662 41.7286 155.829 41.3365 155.829 40.8315C155.829 40.3265 155.674 39.9641 155.371 39.7146C155.068 39.4651 154.605 39.3403 153.993 39.3403H152.918V39.3463Z" fill="#1A1A1A"/>
<path d="M157.153 45.8812L160.153 38.574H161.104L164.116 45.8812H163.1L162.31 43.9267H158.918L158.169 45.8812H157.147H157.153ZM159.227 43.1544H162.013L160.747 39.9463C160.724 39.8928 160.706 39.8275 160.688 39.7503C160.67 39.6671 160.652 39.572 160.629 39.4592H160.605C160.587 39.5602 160.569 39.6552 160.546 39.7324C160.522 39.8097 160.504 39.8869 160.48 39.9463L159.233 43.1544H159.227Z" fill="#1A1A1A"/>
<path d="M171.376 45.8812H170.282L168.94 43.8079C168.69 43.4217 168.476 43.1722 168.298 43.0593C168.12 42.9464 167.9 42.893 167.651 42.893H166.748V45.8812H165.833V38.574H168.168C168.851 38.574 169.415 38.7403 169.867 39.0789C170.318 39.4176 170.544 39.9107 170.544 40.5701C170.544 41.087 170.401 41.5206 170.116 41.8711C169.831 42.2217 169.433 42.4771 168.934 42.6316V42.6494C169.1 42.7385 169.243 42.8395 169.368 42.9524C169.492 43.0593 169.623 43.2197 169.76 43.4336L171.382 45.8931L171.376 45.8812ZM166.748 39.3463V42.1207H167.995C168.453 42.1207 168.827 41.984 169.136 41.7107C169.439 41.4375 169.593 41.081 169.593 40.6414C169.593 40.2493 169.457 39.9404 169.183 39.7027C168.91 39.471 168.518 39.3522 168.007 39.3522H166.754L166.748 39.3463Z" fill="#1A1A1A"/>
<path d="M177.192 39.3463H174.934V45.8812H174.019V39.3463H171.768V38.574H177.198V39.3463H177.192Z" fill="#1A1A1A"/>
<path d="M185.301 45.8812H184.178L180.15 40.0532C180.097 39.976 180.055 39.9047 180.014 39.8275C179.972 39.7503 179.936 39.673 179.901 39.5958H179.871C179.883 39.673 179.895 39.7978 179.901 39.9641C179.907 40.1305 179.913 40.3443 179.913 40.5998V45.8812H178.998V38.574H180.186L184.107 44.3069C184.19 44.4257 184.261 44.5267 184.309 44.6099C184.356 44.693 184.398 44.7525 184.422 44.8H184.445C184.428 44.6931 184.416 44.5505 184.404 44.3722C184.392 44.194 184.392 43.9742 184.392 43.7247V38.574H185.307V45.8812H185.301Z" fill="#1A1A1A"/>
<path d="M192.062 45.8812H187.915V38.574H191.889V39.3463H188.83V41.7761H191.658V42.5484H188.83V45.1089H192.062V45.8812Z" fill="#1A1A1A"/>
<path d="M199.672 45.8812H198.579L197.236 43.8079C196.987 43.4217 196.773 43.1722 196.595 43.0593C196.416 42.9464 196.203 42.893 195.947 42.893H195.044V45.8812H194.129V38.574H196.464C197.147 38.574 197.711 38.7403 198.163 39.0789C198.614 39.4176 198.84 39.9107 198.84 40.5701C198.84 41.087 198.698 41.5206 198.407 41.8711C198.121 42.2217 197.723 42.4771 197.224 42.6316V42.6494C197.391 42.7385 197.533 42.8395 197.658 42.9524C197.783 43.0593 197.913 43.2197 198.05 43.4336L199.672 45.8931V45.8812ZM195.044 39.3463V42.1207H196.292C196.749 42.1207 197.123 41.984 197.432 41.7107C197.735 41.4375 197.89 41.081 197.89 40.6414C197.89 40.2493 197.753 39.9404 197.486 39.7027C197.212 39.471 196.82 39.3522 196.309 39.3522H195.056L195.044 39.3463Z" fill="#1A1A1A"/>
<path d="M201.561 45.994C201.389 45.994 201.24 45.9346 201.116 45.8217C200.991 45.7088 200.931 45.5722 200.931 45.4118C200.931 45.2514 200.991 45.1207 201.116 45.0019C201.24 44.889 201.389 44.8296 201.561 44.8296C201.733 44.8296 201.882 44.889 202.007 45.0019C202.131 45.1148 202.191 45.2514 202.191 45.4118C202.191 45.5722 202.131 45.7088 202.007 45.8217C201.882 45.9346 201.733 45.994 201.561 45.994Z" fill="#1A1A1A"/>
</g>
<defs>
<clipPath id="clip0_13_43">
<rect width="202.773" height="46" fill="white"/>
</clipPath>
</defs>
</svg>
